PathFileType	4	(X/Y/Z)	C:\Users\Basilio\Documents\Thesis Gigler\squatting_fais\c3dfiles\038\SJ_pre5\markers_experimental.trc
DataRate	CameraRate	NumFrames	NumMarkers	Units	OrigDataRate	OrigDataStartFrame	OrigNumFrames
200.000000	200.000000	4	61	mm	200.000000	566	1510
Frame#	Time	FHD			LBHD			RBHD			C7			T10			CLAV			LSHO			LUUPA			LMUPA			LDUPA			LLEP			LMEP			LRAD			LUL			LRFIN			RSHO			RUPA1			RMUPA			RDUPA			RLEP			RMEP			RRAD			RUL			RUFIN			LASI			RASI			USACR			LSACR			RSACR			LTHI1			LTHI2			LTHI3			LTHI4			LLFC			LMFC			LTIB1			LTIB2			LTIB3			LTIB4			LLMAL			LMMAL			LHEE			LMT1			LMT2			LMT5			RTHI			RTHI2			RTHI3			RTHI4			RLFC			RMFC			RTIB1			RTIB2			RTIB3			RTIB4			RLMAL			RMMAL			RHEE			RMT1			RMT2			RMT5			
		X1	Y1	Z1	X2	Y2	Z2	X3	Y3	Z3	X4	Y4	Z4	X5	Y5	Z5	X6	Y6	Z6	X7	Y7	Z7	X8	Y8	Z8	X9	Y9	Z9	X10	Y10	Z10	X11	Y11	Z11	X12	Y12	Z12	X13	Y13	Z13	X14	Y14	Z14	X15	Y15	Z15	X16	Y16	Z16	X17	Y17	Z17	X18	Y18	Z18	X19	Y19	Z19	X20	Y20	Z20	X21	Y21	Z21	X22	Y22	Z22	X23	Y23	Z23	X24	Y24	Z24	X25	Y25	Z25	X26	Y26	Z26	X27	Y27	Z27	X28	Y28	Z28	X29	Y29	Z29	X30	Y30	Z30	X31	Y31	Z31	X32	Y32	Z32	X33	Y33	Z33	X34	Y34	Z34	X35	Y35	Z35	X36	Y36	Z36	X37	Y37	Z37	X38	Y38	Z38	X39	Y39	Z39	X40	Y40	Z40	X41	Y41	Z41	X42	Y42	Z42	X43	Y43	Z43	X44	Y44	Z44	X45	Y45	Z45	X46	Y46	Z46	X47	Y47	Z47	X48	Y48	Z48	X49	Y49	Z49	X50	Y50	Z50	X51	Y51	Z51	X52	Y52	Z52	X53	Y53	Z53	X54	Y54	Z54	X55	Y55	Z55	X56	Y56	Z56	X57	Y57	Z57	X58	Y58	Z58	X59	Y59	Z59	X60	Y60	Z60	X61	Y61	Z61	

567	2.83	-130.9274597167969	1375.173828125	-904.4722290039065	-259.2506408691407	1271.711303710938	-962.270690917969	-247.9817352294922	1268.401000976563	-815.940124511719	-287.8099365234376	1169.008422851563	-884.6148071289065	-456.432342529297	949.5752563476565	-873.597595214844	-172.4357147216797	1078.647338867188	-893.1331176757815	-181.9176788330078	1133.865112304688	-1052.481079101563	-248.3665466308594	998.6582031250002	-1238.63037109375	-235.1426239013672	953.1174926757815	-1219.18017578125	-260.7300109863282	936.944274902344	-1269.816772460938	-283.0722351074219	877.4494628906252	-1285.910522460938	-363.5017700195313	903.5964355468752	-1298.034790039063	-449.7054443359376	746.3676147460939	-1076.869140625	-400.3320617675782	697.1428833007814	-1099.02197265625	-442.6869201660157	730.2388916015626	-1002.653625488281	-172.2979888916016	1118.541625976563	-733.8068847656251	-211.5252685546876	993.1845703125002	-551.7574462890626	-217.1298217773438	946.0708007812502	-560.8186035156251	-231.6331024169922	946.9093017578127	-502.8766479492189	-259.5886535644532	882.5343017578127	-470.4568786621095	-336.1745300292969	912.8906250000002	-452.6456298828126	-426.4655761718751	730.9455566406251	-635.2980957031251	-374.3528442382813	681.9831542968751	-623.1963500976564	-407.9298706054689	732.8179931640626	-705.4459228515626	-432.8827514648439	723.2577514648439	-987.4480590820315	-416.7545471191407	732.7196044921876	-740.5980224609376	-562.0063476562501	833.3240966796877	-857.3972167968752	-590.7807617187501	812.064392089844	-882.418395996094	-583.8323364257814	812.8873291015627	-824.9719238281252	-385.9256896972657	589.4459228515626	-1149.011962890625	-309.0806884765626	566.4385986328126	-1184.0634765625	-276.2389221191407	595.8963623046876	-1163.077758789063	-290.6440734863282	508.4617614746095	-1192.9228515625	-253.8211364746094	466.1021728515626	-1198.1708984375	-212.7300720214844	454.0880432128907	-1098.4443359375	-241.6016082763672	287.1721191406251	-1123.50927734375	-315.3808898925782	261.2465209960938	-1167.626708984375	-278.6962585449219	246.188217163086	-1147.011840820313	-307.5458984375001	180.5300445556641	-1101.254516601563	-432.8772277832032	82.51170349121095	-1087.205932617188	-375.0126953125001	97.6711120605469	-1026.069458007813	-469.5291442871095	44.49958038330079	-1021.019836425781	-267.5928649902344	46.75155258178712	-1083.500366210938	-278.5032653808594	50.21851348876955	-1133.019165039063	-330.9004821777344	31.07080268859864	-1165.986328125	-393.6006774902345	579.7839965820314	-621.3765869140626	-332.1708679199219	566.9514160156251	-599.4705810546876	-307.4145202636719	591.2791137695314	-600.2296752929689	-294.7239074707032	488.352020263672	-600.3273925781251	-210.4154968261719	421.3312377929689	-590.1869506835939	-185.8836669921875	427.8267822265626	-698.7207641601564	-223.3380584716797	260.1557006835938	-638.6813354492189	-336.2745666503907	224.210678100586	-631.9031372070314	-292.2074279785157	207.7108306884766	-637.1873168945314	-298.5274658203126	161.3446960449219	-672.5724487304689	-416.9037170410157	87.2907180786133	-678.2258300781251	-368.2483825683594	88.81332397460939	-749.1163330078126	-464.7122497558595	41.19149398803712	-758.9544067382814	-263.1582946777344	47.99267196655274	-672.6101684570314	-280.9436340332032	52.53055953979494	-630.1719360351564	-336.9829406738282	35.31866455078126	-601.4235229492189	
568	2.835	-130.4774932861328	1373.88818359375	-904.685729980469	-258.8932800292969	1270.549682617188	-962.1831054687502	-247.6440734863282	1267.15380859375	-816.0722656250002	-287.2994689941407	1167.558715820313	-884.727966308594	-456.1349182128907	948.4547119140627	-873.5932617187502	-172.1146087646485	1076.997436523438	-893.3269042968752	-181.5635223388672	1132.32861328125	-1052.377075195313	-248.1415557861329	996.9917602539065	-1238.707153320313	-234.2439422607422	952.309265136719	-1219.481689453125	-260.2788391113282	936.585388183594	-1270.07275390625	-282.6726379394532	876.3293457031252	-1286.220336914063	-363.3467712402344	902.1773071289065	-1298.22705078125	-449.4857177734376	745.4372558593751	-1076.939819335938	-400.5378723144532	695.8405151367189	-1098.891357421875	-442.8096923828126	729.6244506835939	-1001.854553222656	-171.8423156738282	1117.177612304688	-733.8647460937501	-211.2324676513672	991.8994140625002	-551.8347778320314	-217.0753021240235	944.6876220703127	-560.8583984375001	-231.6568603515626	945.1775512695315	-503.1541137695314	-259.1683959960938	881.1672973632815	-470.5898742675782	-335.8461914062501	911.7136230468752	-452.4925537109376	-426.239959716797	730.2442626953126	-635.4212036132814	-374.4108886718751	681.0953979492189	-623.2686767578126	-408.6925354003907	731.9088745117189	-705.6566772460939	-432.8531799316407	722.1490478515626	-987.263854980469	-416.5767822265626	731.9130249023439	-740.6076660156251	-562.1041870117189	832.5833129882815	-857.3865966796877	-590.8709716796876	811.0488281250002	-882.437927246094	-583.7164916992189	811.6165771484377	-824.917175292969	-385.9240722656251	588.9896850585939	-1149.05322265625	-309.3903808593751	566.3765258789064	-1184.156616210938	-276.2046813964844	595.6553955078126	-1163.201904296875	-290.4827880859376	508.1578674316407	-1193.160522460938	-253.6285858154297	465.8974914550782	-1198.429077148438	-212.4896392822266	453.958709716797	-1098.7880859375	-241.5903472900391	287.1283264160157	-1123.637451171875	-315.2039489746094	261.6390686035157	-1167.6357421875	-278.6384887695313	246.1517791748047	-1147.10693359375	-307.4536132812501	180.4183044433594	-1101.412231445313	-432.8151245117189	82.57849884033205	-1087.1669921875	-374.9841918945313	97.6518478393555	-1026.066650390625	-469.5220947265626	44.48495864868165	-1021.042602539063	-266.0980224609376	48.33240127563478	-1083.796142578125	-278.4937133789063	50.21290969848634	-1133.024169921875	-330.8658447265626	31.05920219421387	-1165.961547851563	-393.4549865722657	579.0645751953126	-621.5087890625001	-332.0400695800782	566.4950561523439	-599.4838256835939	-307.3907165527344	590.8210449218751	-600.1989135742189	-294.4019775390626	487.6932373046876	-600.2551269531251	-209.9712524414063	421.316619873047	-590.0186767578126	-185.5963745117188	427.6084899902345	-698.6781616210939	-223.1467285156251	259.9804382324219	-638.6295166015626	-336.0375671386719	224.1815795898438	-631.9071655273439	-292.0119934082032	207.5863037109376	-637.1275634765626	-298.4254455566407	161.2176666259766	-672.5051879882814	-416.8326721191407	87.36184692382814	-678.2211303710939	-367.6221008300782	88.52332305908205	-748.9493408203126	-464.6548461914064	41.22305297851563	-758.9318237304689	-263.1662292480469	48.02668380737306	-672.6218872070314	-280.9668579101563	52.48668289184572	-630.1721801757814	-336.9815673828126	35.30341339111329	-601.4271850585939	
569	2.84	-130.1968536376953	1372.2470703125	-904.5822753906252	-258.6256713867188	1268.751220703125	-962.295349121094	-247.1405792236329	1265.502197265625	-815.852478027344	-287.0679626464844	1166.799438476563	-884.591003417969	-455.963836669922	947.322204589844	-873.6682128906252	-171.5891723632813	1074.85302734375	-893.571228027344	-181.1410522460938	1130.97265625	-1052.420288085938	-247.7237548828126	995.802429199219	-1238.771118164063	-234.0719909667969	951.2288818359377	-1219.484252929688	-259.3743896484376	935.2274169921877	-1270.322998046875	-282.5708312988282	874.9145507812502	-1286.183959960938	-362.8204650878907	901.2486572265627	-1298.194702148438	-450.4670715332032	744.8978271484376	-1076.484741210938	-400.6527099609376	695.0036010742189	-1098.819458007813	-443.0333251953126	728.8482055664064	-1001.683959960938	-171.412338256836	1115.682861328125	-733.8040771484376	-210.8357086181641	990.2617187500002	-551.7351074218751	-216.5110626220704	943.503601074219	-560.9249877929689	-230.9485473632813	944.0255126953127	-502.8413391113282	-258.8940124511719	879.8879394531252	-470.3999023437501	-335.5621643066407	910.6237792968752	-452.4013061523439	-426.2962951660157	729.3292846679689	-635.1893920898439	-374.4708557128907	680.0815429687501	-623.2814941406251	-408.9261169433595	731.2827148437501	-705.7285156250001	-433.0005798339845	721.2148437500001	-987.1938476562502	-416.5189514160157	731.0576782226564	-740.7221679687501	-562.2510986328126	831.4620361328127	-857.323669433594	-590.5991821289064	809.0811157226565	-882.4569091796877	-583.8182373046876	810.689392089844	-824.9908447265627	-385.9937133789064	588.4625854492189	-1149.057739257813	-309.3784179687501	566.0729980468751	-1184.246704101563	-276.1557922363282	595.3753662109376	-1163.259887695313	-290.4475097656251	507.9246215820314	-1193.319702148438	-253.3024597167969	465.6072692871095	-1198.57177734375	-212.3963165283204	453.6459960937501	-1099.0654296875	-241.4918518066407	287.0513305664063	-1123.710571289063	-315.1119995117188	260.9386596679688	-1167.756958007813	-278.6132202148438	246.3382415771485	-1147.205688476563	-307.3697814941407	180.3762359619141	-1101.43798828125	-432.8447265625001	82.54410552978517	-1087.1689453125	-374.9000549316407	97.74651336669925	-1026.014892578125	-469.487518310547	44.45357513427735	-1021.042602539063	-267.5321044921876	46.83756256103516	-1083.4736328125	-278.4828491210938	50.21234512329103	-1132.999633789063	-330.9013977050782	31.12615203857423	-1165.967163085938	-393.3303222656251	578.1856689453126	-621.4745483398439	-331.9399719238282	565.8180541992189	-599.4613647460939	-307.3474731445313	590.3916625976564	-600.2832641601564	-294.1203002929688	487.1656188964845	-600.1571044921876	-209.692855834961	421.1578674316407	-589.9581909179689	-185.3237915039063	427.3506164550782	-698.6567382812501	-222.8899688720704	259.7697753906251	-638.6909179687501	-335.8354492187501	224.2246856689454	-631.9001464843751	-291.7419738769532	207.3569946289063	-637.1087036132814	-298.2591247558594	161.0542602539063	-672.6123657226564	-416.7593078613282	87.33596801757814	-678.2477416992189	-368.1716003417969	88.78413391113283	-749.1389770507814	-464.4967651367189	41.15911102294923	-758.9113159179689	-263.1528015136719	47.99377822875977	-672.6386108398439	-280.9225769042969	52.47007751464845	-630.1375122070314	-337.0390014648438	35.27823638916016	-601.4761352539064	
570	2.845	-130.0455627441407	1370.83740234375	-904.6758422851565	-258.1864624023438	1267.239379882813	-962.284606933594	-246.7752532958985	1264.244140625	-816.1109008789065	-286.5378723144532	1165.204467773438	-884.6018066406252	-455.8708801269532	946.0557861328127	-873.718444824219	-171.3403472900391	1074.134521484375	-893.3775024414065	-180.7038879394532	1129.379516601563	-1052.36328125	-247.2362823486329	994.2713012695315	-1238.775390625	-233.6968841552735	949.4855957031252	-1219.492919921875	-259.9329223632813	933.4036254882815	-1269.999145507813	-282.1836547851563	873.6730957031252	-1286.481689453125	-362.5836791992188	900.1219482421877	-1298.37255859375	-450.5085754394532	744.2006225585939	-1076.446166992188	-400.6695556640626	694.3521118164064	-1098.68115234375	-443.0185546875001	727.8768920898439	-1001.605895996094	-170.7716522216797	1114.239990234375	-733.9412841796876	-210.3553924560547	988.9273071289065	-551.8696289062501	-216.3438110351563	941.872985839844	-560.8347167968751	-230.4242858886719	942.787780761719	-502.8608703613282	-258.7015380859376	878.708190917969	-470.5583801269532	-335.2529296875001	909.6953735351565	-452.2637939453126	-426.5546875000001	728.4072265625001	-635.1477050781251	-374.6022033691407	679.2714843750001	-623.3671875000001	-408.4341735839845	730.5822753906251	-705.4403686523439	-433.105926513672	720.3181152343751	-987.1099853515627	-416.7814025878907	729.6625976562501	-740.5764160156251	-561.9998168945314	830.1523437500002	-857.4067993164065	-591.7860107421876	809.6983642578127	-882.5479125976565	-586.2317504882814	811.654968261719	-825.7458496093752	-385.979949951172	587.9072875976564	-1149.103637695313	-309.2996826171876	565.7431030273439	-1184.33447265625	-276.1841735839844	595.0764770507814	-1163.3203125	-290.3061218261719	507.662322998047	-1193.48046875	-253.0435028076172	465.401580810547	-1198.76513671875	-212.4051513671876	453.4642333984376	-1099.355102539063	-241.3812866210938	286.9245300292969	-1123.753662109375	-315.0177307128907	260.8553771972657	-1167.839233398438	-278.3726501464844	246.0120697021485	-1147.225219726563	-307.2567443847657	180.3451843261719	-1101.517456054688	-432.8323974609376	82.47045898437501	-1087.185302734375	-374.9722900390626	97.65157318115237	-1026.0869140625	-469.4761047363282	44.45231628417969	-1021.01806640625	-267.5309143066407	46.83825302124024	-1083.47265625	-278.4308166503907	50.17942810058595	-1133.036865234375	-330.8389892578126	31.07172584533692	-1165.966796875	-393.2902832031251	577.6800537109376	-621.3705444335939	-331.6899108886719	565.1930541992189	-599.5468139648439	-307.1477966308594	590.0021362304689	-600.3856201171876	-293.8300476074219	486.8549804687501	-600.1583862304689	-209.4635925292969	421.0205383300782	-589.8851318359376	-185.1461486816407	427.0215454101564	-698.6253662109376	-222.6645812988282	259.5845031738282	-638.7103271484376	-335.6327514648438	224.2012786865235	-631.8892822265626	-291.5786437988282	207.3108673095704	-637.0868530273439	-298.1170349121094	160.8960113525391	-672.6336059570314	-416.7355346679689	87.34246826171876	-678.2522583007814	-368.0700988769532	88.75167846679689	-749.1655273437501	-464.5274658203126	41.12681961059571	-758.9384155273439	-263.1408691406251	47.98414611816407	-672.6128540039064	-280.8981018066407	52.47903442382814	-630.1439819335939	-337.0361022949219	35.27562332153321	-601.4763793945314	
